<?xml version="1.0" encoding="UTF-8"?>
<svg enable-background="new 0 0 30 30" version="1.1" viewBox="0 0 30 30" xml:space="preserve" xmlns="http://www.w3.org/2000/svg">
<style type="text/css">.st0{fill:#DF7B7B;}.st1{fill:#FFFFFF;}</style>
<path class="st0" d="M28,21V8.6c0-0.8-0.4-1.5-1.1-1.9L16.1,0.5c-0.7-0.4-1.6-0.4-2.2,0L3.1,6.7C2.4,7.1,2,7.8,2,8.6V21  c0,0.8,0.4,1.5,1.1,1.9l10.8,6.2c0.7,0.4,1.6,0.4,2.2,0L26.9,23C27.6,22.6,28,21.8,28,21z"/>
<path class="st1" d="m11.2 21.5c-0.3 0-0.6-0.1-0.9-0.2-1.8-0.8-1.9-4.1-0.3-7.6s4.2-5.5 5.9-4.7c0.9 0.4 1.6 1.5 2 2.9 0.3 1.6 0.2 3.2-0.5 4.7-1.2 2.5-4.1 4.9-6.2 4.9zm3.9-11.7c-1.1 0-3 1.6-4.2 4.3-1.4 3.1-1.2 5.8-0.2 6.3 1.2 0.5 4.4-1.3 5.7-4.3 0.6-1.3 0.8-2.7 0.5-4.1-0.2-1.1-0.8-1.9-1.4-2.2h-0.4z"/>
<path class="st1" d="m18.9 21.5c-1.9 0-4.9-2-6.2-4.9-0.7-1.5-0.9-3.1-0.5-4.7 0.3-1.4 1.1-2.5 2-2.9 1.8-0.8 4.4 1.3 5.9 4.7 0.7 1.6 1.1 3.2 1.1 4.6 0 1.5-0.5 2.6-1.4 3-0.4 0.2-0.6 0.2-0.9 0.2zm-4-11.7c-0.1 0-0.3 0-0.4 0.1-0.6 0.3-1.2 1.1-1.4 2.2-0.3 1.4-0.1 2.8 0.5 4.1 1.3 2.9 4.6 4.8 5.7 4.3 0.5-0.2 0.8-1 0.8-2.1 0-1.2-0.3-2.7-1-4.2-1.2-2.8-3-4.4-4.2-4.4z"/>
<path class="st1" d="m13.9 10c-0.2 0-0.4-0.1-0.4-0.3l-0.5-0.9c-0.1-0.2 0-0.5 0.3-0.6 0.2-0.1 0.5 0 0.6 0.2l0.4 0.9c0.1 0.2 0 0.5-0.2 0.7h-0.2z"/>
<path class="st1" d="m16.1 10c-0.3 0-0.5-0.2-0.5-0.5v-0.2l0.4-0.9c0.1-0.2 0.4-0.3 0.7-0.2s0.4 0.4 0.3 0.6l-0.4 0.9c-0.1 0.2-0.3 0.3-0.5 0.3z"/>
<rect class="st1" x="12.5" y="13.6" width="5.1" height="1.3"/>
<rect class="st1" x="13.3" y="16.1" width="3.4" height="1.3"/>
</svg>
